<svg viewBox="0 0 241.5 67" xmlns="http://www.w3.org/2000/svg" class="bc-keyboard" style="width:100%;display:block" role="img" aria-label="Piano keyboard"><defs><clipPath id="kb-clip-0-0"><rect x="0" y="0" width="241.5" height="65" rx="3" ry="3"></rect></clipPath></defs><g transform="translate(0, 0)"><g clip-path="url(#kb-clip-0-0)"><rect x="0.5" y="0" width="23" height="65" rx="3" ry="3" fill="#fafafa" stroke="#333333" stroke-width="1"></rect><rect x="23.5" y="0" width="23" height="65" rx="3" ry="3" fill="#222" stroke="#333333" stroke-width="1"></rect><rect x="46.5" y="0" width="23" height="65" rx="3" ry="3" fill="#fafafa" stroke="#333333" stroke-width="1"></rect><rect x="69.5" y="0" width="23" height="65" rx="3" ry="3" fill="#222" stroke="#333333" stroke-width="1"></rect><rect x="92.5" y="0" width="23" height="65" rx="3" ry="3" fill="#fafafa" stroke="#333333" stroke-width="1"></rect><rect x="115.5" y="0" width="23" height="65" rx="3" ry="3" fill="#222" stroke="#333333" stroke-width="1"></rect><rect x="138.5" y="0" width="23" height="65" rx="3" ry="3" fill="#fafafa" stroke="#333333" stroke-width="1"></rect><rect x="161.5" y="0" width="23" height="65" rx="3" ry="3" fill="#222" stroke="#333333" stroke-width="1"></rect><rect x="184.5" y="0" width="23" height="65" rx="3" ry="3" fill="#fafafa" stroke="#333333" stroke-width="1"></rect><rect x="207.5" y="0" width="23" height="65" rx="3" ry="3" fill="#fafafa" stroke="#333333" stroke-width="1"></rect><rect x="230.5" y="0" width="23" height="65" rx="3" ry="3" fill="#fafafa" stroke="#333333" stroke-width="1"></rect><rect x="37.83" y="0" width="13" height="40" rx="1" ry="1" fill="#222222" stroke="#333333" stroke-width="1"></rect><rect x="65.17" y="0" width="13" height="40" rx="1" ry="1" fill="#222222" stroke="#333333" stroke-width="1"></rect><rect x="105.75" y="0" width="13" height="40" rx="1" ry="1" fill="#222222" stroke="#333333" stroke-width="1"></rect><rect x="131.75" y="0" width="13" height="40" rx="1" ry="1" fill="#222222" stroke="#333333" stroke-width="1"></rect><rect x="158.25" y="0" width="13" height="40" rx="1" ry="1" fill="#222222" stroke="#333333" stroke-width="1"></rect><rect x="198.83" y="0" width="13" height="40" rx="1" ry="1" fill="#222222" stroke="#333333" stroke-width="1"></rect><rect x="226.17000000000002" y="0" width="13" height="40" rx="1" ry="1" fill="#222222" stroke="#333333" stroke-width="1"></rect></g><rect x="0" y="0" width="241.5" height="65" rx="3" ry="3" fill="none" stroke="#333333" stroke-width="1"></rect></g></svg>