<svg viewBox="11.5 0 253 67" xmlns="http://www.w3.org/2000/svg" class="bc-keyboard" style="width:100%;display:block" role="img" aria-label="Piano keyboard"><defs><clipPath id="kb-clip-11.5-0"><rect x="11.5" y="0" width="253" height="65" rx="3" ry="3"></rect></clipPath></defs><g transform="translate(0, 0)"><g clip-path="url(#kb-clip-11.5-0)"><rect x="0.5" y="0" width="23" height="65" rx="3" ry="3" fill="#fafafa" stroke="#333333" stroke-width="1"></rect><rect x="23.5" y="0" width="23" height="65" rx="3" ry="3" fill="#fafafa" stroke="#333333" stroke-width="1"></rect><rect x="46.5" y="0" width="23" height="65" rx="3" ry="3" fill="#16a3b8" stroke="#333333" stroke-width="1"></rect><rect x="69.5" y="0" width="23" height="65" rx="3" ry="3" fill="#fafafa" stroke="#333333" stroke-width="1"></rect><rect x="92.5" y="0" width="23" height="65" rx="3" ry="3" fill="#b816a0" stroke="#333333" stroke-width="1"></rect><rect x="115.5" y="0" width="23" height="65" rx="3" ry="3" fill="#fafafa" stroke="#333333" stroke-width="1"></rect><rect x="138.5" y="0" width="23" height="65" rx="3" ry="3" fill="#f09819" stroke="#333333" stroke-width="1"></rect><rect x="161.5" y="0" width="23" height="65" rx="3" ry="3" fill="#fafafa" stroke="#333333" stroke-width="1"></rect><rect x="184.5" y="0" width="23" height="65" rx="3" ry="3" fill="#59b816" stroke="#333333" stroke-width="1"></rect><rect x="207.5" y="0" width="23" height="65" rx="3" ry="3" fill="#fafafa" stroke="#333333" stroke-width="1"></rect><rect x="230.5" y="0" width="23" height="65" rx="3" ry="3" fill="#fafafa" stroke="#333333" stroke-width="1"></rect><rect x="253.5" y="0" width="23" height="65" rx="3" ry="3" fill="#fafafa" stroke="#333333" stroke-width="1"></rect><rect x="36.75" y="0" width="13" height="40" rx="1" ry="1" fill="#222222" stroke="#333333" stroke-width="1"></rect><rect x="62.75" y="0" width="13" height="40" rx="1" ry="1" fill="#222222" stroke="#333333" stroke-width="1"></rect><rect x="89.25" y="0" width="13" height="40" rx="1" ry="1" fill="#222222" stroke="#333333" stroke-width="1"></rect><rect x="129.83" y="0" width="13" height="40" rx="1" ry="1" fill="#222222" stroke="#333333" stroke-width="1"></rect><rect x="157.17000000000002" y="0" width="13" height="40" rx="1" ry="1" fill="#222222" stroke="#333333" stroke-width="1"></rect><rect x="197.75" y="0" width="13" height="40" rx="1" ry="1" fill="#222222" stroke="#333333" stroke-width="1"></rect><rect x="223.75" y="0" width="13" height="40" rx="1" ry="1" fill="#222222" stroke="#333333" stroke-width="1"></rect><rect x="250.25" y="0" width="13" height="40" rx="1" ry="1" fill="#222222" stroke="#333333" stroke-width="1"></rect></g><rect x="11.5" y="0" width="253" height="65" rx="3" ry="3" fill="none" stroke="#333333" stroke-width="1"></rect></g></svg>