<svg viewBox="11.5 0 293.1 122" xmlns="http://www.w3.org/2000/svg" class="bc-keyboard" style="width:100%;display:block" role="img" aria-label="Piano keyboard"><defs><clipPath id="kb-clip-11.5-0"><rect x="11.5" y="0" width="293.1" height="120" rx="3" ry="3"></rect></clipPath></defs><g transform="translate(0, 0)"><g clip-path="url(#kb-clip-11.5-0)"><rect x="0.5" y="0" width="25.3" height="120" rx="3" ry="3" fill="#fafafa" stroke="#333333" stroke-width="1"></rect><rect x="25.8" y="0" width="25.3" height="120" rx="3" ry="3" fill="#fafafa" stroke="#333333" stroke-width="1"></rect><rect x="51.1" y="0" width="25.3" height="120" rx="3" ry="3" fill="#fafafa" stroke="#333333" stroke-width="1"></rect><rect x="76.4" y="0" width="25.3" height="120" rx="3" ry="3" fill="#88a7f8" stroke="#333333" stroke-width="1"></rect><rect x="101.7" y="0" width="25.3" height="120" rx="3" ry="3" fill="#fafafa" stroke="#333333" stroke-width="1"></rect><rect x="127" y="0" width="25.3" height="120" rx="3" ry="3" fill="#f86e6e" stroke="#333333" stroke-width="1"></rect><rect x="152.3" y="0" width="25.3" height="120" rx="3" ry="3" fill="#fafafa" stroke="#333333" stroke-width="1"></rect><rect x="177.60000000000002" y="0" width="25.3" height="120" rx="3" ry="3" fill="#fff56d" stroke="#333333" stroke-width="1"></rect><rect x="202.90000000000003" y="0" width="25.3" height="120" rx="3" ry="3" fill="#fafafa" stroke="#333333" stroke-width="1"></rect><rect x="228.20000000000005" y="0" width="25.3" height="120" rx="3" ry="3" fill="#6bc6a0" stroke="#333333" stroke-width="1"></rect><rect x="253.50000000000006" y="0" width="25.3" height="120" rx="3" ry="3" fill="#fafafa" stroke="#333333" stroke-width="1"></rect><rect x="278.80000000000007" y="0" width="25.3" height="120" rx="3" ry="3" fill="#fafafa" stroke="#333333" stroke-width="1"></rect><rect x="40.38" y="0" width="14.3" height="80" rx="1" ry="1" fill="#222222" stroke="#333333" stroke-width="1"></rect><rect x="68.98" y="0" width="14.3" height="80" rx="1" ry="1" fill="#222222" stroke="#333333" stroke-width="1"></rect><rect x="98.13000000000001" y="0" width="14.3" height="80" rx="1" ry="1" fill="#222222" stroke="#333333" stroke-width="1"></rect><rect x="142.76" y="0" width="14.3" height="80" rx="1" ry="1" fill="#222222" stroke="#333333" stroke-width="1"></rect><rect x="172.84" y="0" width="14.3" height="80" rx="1" ry="1" fill="#222222" stroke="#333333" stroke-width="1"></rect><rect x="217.48000000000005" y="0" width="14.3" height="80" rx="1" ry="1" fill="#222222" stroke="#333333" stroke-width="1"></rect><rect x="246.08000000000004" y="0" width="14.3" height="80" rx="1" ry="1" fill="#222222" stroke="#333333" stroke-width="1"></rect><rect x="275.2300000000001" y="0" width="14.3" height="80" rx="1" ry="1" fill="#222222" stroke="#333333" stroke-width="1"></rect></g><rect x="11.5" y="0" width="293.1" height="120" rx="3" ry="3" fill="none" stroke="#333333" stroke-width="1"></rect></g></svg>