<svg viewBox="11.5 0 299 122" xmlns="http://www.w3.org/2000/svg" class="bc-keyboard" style="width:100%;display:block" role="img" aria-label="Piano keyboard"><defs><clipPath id="kb-clip-11.5-0"><rect x="11.5" y="0" width="299" height="120" rx="3" ry="3"></rect></clipPath></defs><g transform="translate(0, 0)"><g clip-path="url(#kb-clip-11.5-0)"><rect x="0.5" y="0" width="25.3" height="120" rx="3" ry="3" fill="#fafafa" stroke="#333333" stroke-width="1"></rect><rect x="25.8" y="0" width="25.3" height="120" rx="3" ry="3" fill="#fafafa" stroke="#333333" stroke-width="1"></rect><rect x="51.1" y="0" width="25.3" height="120" rx="3" ry="3" fill="#fafafa" stroke="#333333" stroke-width="1"></rect><rect x="76.4" y="0" width="25.3" height="120" rx="3" ry="3" fill="#fafafa" stroke="#333333" stroke-width="1"></rect><rect x="101.7" y="0" width="25.3" height="120" rx="3" ry="3" fill="#f86e6e" stroke="#333333" stroke-width="1"></rect><rect x="127" y="0" width="25.3" height="120" rx="3" ry="3" fill="#fafafa" stroke="#333333" stroke-width="1"></rect><rect x="152.3" y="0" width="25.3" height="120" rx="3" ry="3" fill="#fff56d" stroke="#333333" stroke-width="1"></rect><rect x="177.60000000000002" y="0" width="25.3" height="120" rx="3" ry="3" fill="#fafafa" stroke="#333333" stroke-width="1"></rect><rect x="202.90000000000003" y="0" width="25.3" height="120" rx="3" ry="3" fill="#6bc6a0" stroke="#333333" stroke-width="1"></rect><rect x="228.20000000000005" y="0" width="25.3" height="120" rx="3" ry="3" fill="#fafafa" stroke="#333333" stroke-width="1"></rect><rect x="253.50000000000006" y="0" width="25.3" height="120" rx="3" ry="3" fill="#e277b1" stroke="#333333" stroke-width="1"></rect><rect x="278.80000000000007" y="0" width="25.3" height="120" rx="3" ry="3" fill="#fafafa" stroke="#333333" stroke-width="1"></rect><rect x="304.1000000000001" y="0" width="25.3" height="120" rx="3" ry="3" fill="#fafafa" stroke="#333333" stroke-width="1"></rect><rect x="329.4000000000001" y="0" width="25.3" height="120" rx="3" ry="3" fill="#fafafa" stroke="#333333" stroke-width="1"></rect><rect x="15.08" y="0" width="14.3" height="80" rx="1" ry="1" fill="#222222" stroke="#333333" stroke-width="1"></rect><rect x="43.68" y="0" width="14.3" height="80" rx="1" ry="1" fill="#222222" stroke="#333333" stroke-width="1"></rect><rect x="72.83" y="0" width="14.3" height="80" rx="1" ry="1" fill="#222222" stroke="#333333" stroke-width="1"></rect><rect x="117.46000000000001" y="0" width="14.3" height="80" rx="1" ry="1" fill="#222222" stroke="#333333" stroke-width="1"></rect><rect x="147.54" y="0" width="14.3" height="80" rx="1" ry="1" fill="#222222" stroke="#333333" stroke-width="1"></rect><rect x="192.18000000000004" y="0" width="14.3" height="80" rx="1" ry="1" fill="#222222" stroke="#333333" stroke-width="1"></rect><rect x="220.78000000000003" y="0" width="14.3" height="80" rx="1" ry="1" fill="#222222" stroke="#333333" stroke-width="1"></rect><rect x="249.93000000000004" y="0" width="14.3" height="80" rx="1" ry="1" fill="#222222" stroke="#333333" stroke-width="1"></rect><rect x="294.56000000000006" y="0" width="14.3" height="80" rx="1" ry="1" fill="#222222" stroke="#333333" stroke-width="1"></rect><rect x="324.6400000000001" y="0" width="14.3" height="80" rx="1" ry="1" fill="#222222" stroke="#333333" stroke-width="1"></rect></g><rect x="11.5" y="0" width="299" height="120" rx="3" ry="3" fill="none" stroke="#333333" stroke-width="1"></rect></g></svg>