<svg viewBox="11.5 0 242.5 122" xmlns="http://www.w3.org/2000/svg" class="bc-keyboard" style="width:100%;display:block" role="img" aria-label="Piano keyboard"><defs><clipPath id="kb-clip-11.5-0"><rect x="11.5" y="0" width="242.5" height="120" rx="3" ry="3"></rect></clipPath></defs><g transform="translate(0, 0)"><g clip-path="url(#kb-clip-11.5-0)"><rect x="0.5" y="0" width="25.3" height="120" rx="3" ry="3" fill="#fafafa" stroke="#333333" stroke-width="1"></rect><rect x="25.8" y="0" width="25.3" height="120" rx="3" ry="3" fill="#fafafa" stroke="#333333" stroke-width="1"></rect><rect x="51.1" y="0" width="25.3" height="120" rx="3" ry="3" fill="#fafafa" stroke="#333333" stroke-width="1"></rect><rect x="76.4" y="0" width="25.3" height="120" rx="3" ry="3" fill="#b3f888" stroke="#333333" stroke-width="1"></rect><rect x="101.7" y="0" width="25.3" height="120" rx="3" ry="3" fill="#fafafa" stroke="#333333" stroke-width="1"></rect><rect x="127" y="0" width="25.3" height="120" rx="3" ry="3" fill="#88a7f8" stroke="#333333" stroke-width="1"></rect><rect x="152.3" y="0" width="25.3" height="120" rx="3" ry="3" fill="#fafafa" stroke="#333333" stroke-width="1"></rect><rect x="177.60000000000002" y="0" width="25.3" height="120" rx="3" ry="3" fill="#f86e6e" stroke="#333333" stroke-width="1"></rect><rect x="202.90000000000003" y="0" width="25.3" height="120" rx="3" ry="3" fill="#fafafa" stroke="#333333" stroke-width="1"></rect><rect x="228.20000000000005" y="0" width="25.3" height="120" rx="3" ry="3" fill="#fafafa" stroke="#333333" stroke-width="1"></rect><rect x="16.259999999999998" y="0" width="14.3" height="80" rx="1" ry="1" fill="#222222" stroke="#333333" stroke-width="1"></rect><rect x="46.34" y="0" width="14.3" height="80" rx="1" ry="1" fill="#222222" stroke="#333333" stroke-width="1"></rect><rect x="90.98" y="0" width="14.3" height="80" rx="1" ry="1" fill="#222222" stroke="#333333" stroke-width="1"></rect><rect x="119.58" y="0" width="14.3" height="80" rx="1" ry="1" fill="#222222" stroke="#333333" stroke-width="1"></rect><rect x="148.73" y="0" width="14.3" height="80" rx="1" ry="1" fill="#222222" stroke="#333333" stroke-width="1"></rect><rect x="193.36" y="0" width="14.3" height="80" rx="1" ry="1" fill="#222222" stroke="#333333" stroke-width="1"></rect><rect x="223.44000000000003" y="0" width="14.3" height="80" rx="1" ry="1" fill="#222222" stroke="#333333" stroke-width="1"></rect></g><rect x="11.5" y="0" width="242.5" height="120" rx="3" ry="3" fill="none" stroke="#333333" stroke-width="1"></rect></g></svg>